<svg xmlns="http://www.w3.org/2000/svg" viewBox="0 0 1200 800" role="img" aria-labelledby="t d"><title id="t">Dry-room receiving and controlled drying context</title><desc id="d">A receiving workflow linking correct lot and rack identity, quantity and condition records, environmental context, product condition, and escalation, while emphasizing that drying is monitored rather than a universal fixed-day countdown.</desc><rect width="1200" height="800" fill="#f7f4ea"/><text x="60" y="72" font-family="Arial" font-size="36" font-weight="700" fill="#173f2a">Dry-room receiving: identity + condition + environment</text><g font-family="Arial"><g fill="#e5efe7" stroke="#35664a" stroke-width="3"><rect x="70" y="160" width="240" height="165" rx="20"/><rect x="350" y="160" width="240" height="165" rx="20"/><rect x="630" y="160" width="240" height="165" rx="20"/><rect x="910" y="160" width="220" height="165" rx="20"/></g><g fill="#173f2a" font-size="23" font-weight="700"><text x="100" y="205">1. Verify lot</text><text x="380" y="205">2. Verify location</text><text x="660" y="205">3. Record condition</text><text x="940" y="205">4. Monitor</text></g><g fill="#35493d" font-size="17"><text x="100" y="245">Output/source link</text><text x="100" y="275">Incoming quantity/status</text><text x="380" y="245">Dry-room / rack ID</text><text x="380" y="275">Clean receiving surface</text><text x="660" y="245">Product condition</text><text x="660" y="275">Hold / nonuniformity</text><text x="940" y="245">Temp / RH / airflow</text><text x="940" y="275">Assigned observations</text></g><rect x="110" y="410" width="980" height="255" rx="22" fill="#fff" stroke="#9c6d36" stroke-width="3"/><text x="150" y="457" font-size="27" font-weight="700" fill="#7b4d1f">Controlled drying is evidence-based, not calendar-only</text><text x="150" y="505" font-size="21" fill="#4d473f">Drying rate changes with material density, load, temperature, RH, airflow and product condition.</text><text x="150" y="547" font-size="21" fill="#4d473f">Record the identified rack/lot and supplied environmental/product evidence at its actual scope.</text><text x="150" y="589" font-size="21" fill="#4d473f">Meaningful deviation → document + escalate. Do not declare completion from a universal day count or independently redesign protected controls.</text><text x="150" y="635" font-size="16" fill="#6a645c">One nonuniform rack or container is documented at that location before anyone generalizes the condition to the room or lot.</text></g></svg>